<svg xmlns="http://www.w3.org/2000/svg" viewBox="0 0 150 52.15"><path d="M96.53 24.28c-1.25-.17-2.49-.31-3.73-.6-.47-.1-.95-.18-1.43-.23-4.03-.45-8.09-.61-12.14-.46-1.17.05-2.38.08-3.57.11-.3.02-.59-.02-.88-.09-1.29-.34-2.53-.83-3.7-1.45-.71-.38-1.41-.76-2.11-1.16-1.15-.62-2.28-1.28-3.45-1.85-3.04-1.52-6.3-2.34-9.61-2.99-1.3-.27-2.63-.43-3.96-.46-4.55-.03-9.11-.11-13.66-.07-4.11.03-8.19-.07-12.25-.82-.12 0-.25.01-.37.05-.07.3.1.42.28.53.58.37 1.14.77 1.74 1.1 3.9 2.24 8.02 4.05 12.31 5.41 3.74 1.18 7.58 2 11.47 2.44 4.27.41 8.56.46 12.83.17 2.15-.13 4.3-.22 6.45-.32.24 0 .47.02.71.06-.16.05-.33.09-.49.12-1.99.3-3.98.59-5.97.9-5.23.83-10.34 2.27-15.23 4.31-1.46.6-3.03.9-4.61.89-2.56-.02-5.11-.24-7.63-.66-3.73-.61-7.48-1.15-11.23-1.55-2.37-.22-4.76-.28-7.14-.19-1.65.05-3.29.19-4.92.42-1.52.21-3.01.56-4.46 1.03-.74.24-1.44.56-2.17.86-1.12.47-2.23.97-3.35 1.43-1.26.54-2.55.99-3.88 1.35-.14.06-.26.13-.38.22.07.12.16.23.27.32.14.07.3.13.45.16a92.23 92.23 0 0 0 15.1 2.95c3.55.41 7.12.57 10.69.48 2.06-.08 4.11-.36 6.11-.84 2.67-.65 5.22-1.68 7.72-2.39-.42.21-.95.5-1.5.76-1.58.73-3.1 1.58-4.57 2.52-.95.63-1.89 1.27-2.82 1.97-.66.46-1.28.97-1.85 1.53-1.8 1.83-3.33 3.92-4.53 6.18-.83 1.68-1.81 3.29-2.91 4.81-.03.07-.05.16-.06.24l.28.29c.24-.09.49-.16.71-.26.62-.29 1.25-.58 1.85-.9 1.86-.99 3.72-2 5.56-3 1.3-.68 2.54-1.47 3.7-2.36a38.45 38.45 0 0 0 6.52-6.85c.81-1.1 1.72-2.14 2.59-3.18.72-.83 1.5-1.6 2.28-2.38.53-.54 1.09-1.04 1.69-1.5a11.18 11.18 0 0 1 3.97-1.96c.38-.09.74-.22 1.12-.33 2.43-.75 4.89-1.38 7.39-1.88 1.15-.19 2.29-.44 3.41-.76 2.42-.71 4.9-1.18 7.41-1.42 1.89-.19 3.78-.42 5.66-.66.61-.1 1.23-.08 1.84.05a3.1 3.1 0 0 0 1.76 0c.25-.04.5-.04.75 0 .71.06 1.42.14 2.12.21l.53.08c-.28.07-.41.11-.55.14-2.37.51-4.7 1.22-6.95 2.14-.83.33-1.64.7-2.46 1.05-2.19.94-4.28 2.1-6.24 3.47-1.52 1.1-2.98 2.28-4.38 3.54-2.14 1.8-4.12 3.78-5.9 5.93l-5.89 7.43a.58.58 0 0 0-.17.59c.22.31.52.18.79.07 1.04-.41 2.09-.81 3.12-1.26 3.44-1.57 6.64-3.63 9.5-6.11 3-2.52 5.84-5.22 8.66-7.92 1.89-1.87 4-3.51 6.27-4.88a25.61 25.61 0 0 1 5.41-2.52c2.64-.87 5.4-1.32 8.18-1.33 1.65.02 3.29.16 4.92.4 3.38.45 6.74 1.09 10.05 1.92 1.44.38 2.87.79 4.33 1.08.81.16 1.59.39 2.39.59-.26.06-.52.13-.77.16-.79.12-1.59.22-2.38.33-2.49.38-4.91 1.1-7.35 1.71-1.62.41-3.21.97-4.72 1.68-2.32 1.08-4.62 2.23-6.93 3.34a32.639 32.639 0 0 0-6.38 4.15 30.403 30.403 0 0 0-5.18 5.21c-1.38 1.85-2.71 3.75-4.07 5.62a.92.92 0 0 0-.13.24c-.07.13-.08.29-.11.4.05.12.14.21.26.26.12.05.25.06.37.02.18-.05.35-.1.52-.17 1.55-.57 3.09-1.2 4.64-1.7a62.92 62.92 0 0 0 9.05-3.79c1.3-.68 2.6-1.35 3.88-2.06.82-.45 1.62-.94 2.4-1.46 1.66-1.1 3.31-2.22 4.95-3.36 1.58-1.09 3.17-2.18 4.69-3.35 2.31-1.81 4.81-3.37 7.45-4.64 1.16-.54 2.36-1 3.59-1.37.62-.2 1.28-.18 1.88.05.3.11.61.21.91.31.91.3 1.83.6 2.74.9 1.07.33 2.16.62 3.22.99 3.38 1.15 6.82 2.13 10.31 2.93 3.55.84 7.06 1.6 10.5 2.77.18.07.38.1.57.09.19 0 .39-.06.56-.14.19-.07.39-.14.58-.18.17-.05.34-.12.51-.19.05-.02.06-.11.1-.2l-.48-.35c-.03-.27-.14-.53-.32-.74-.21 0-.46 0-.71.01-1.6.1-3.21-.04-4.77-.43-1.73-.45-3.44-.97-5.15-1.49-3.38-1.03-6.75-2.04-10.1-3.13-3.04-.97-6.1-1.82-9.18-2.63-4.41-1.15-8.87-2.11-13.34-2.98-.7-.13-1.37-.37-1.99-.72-.36-.19-.73-.39-1.07-.62a45.02 45.02 0 0 1-5.51-4.3c-1.69-1.48-3.23-3.12-4.83-4.68-1-.98-2-1.95-3.01-2.9a24.795 24.795 0 0 0-3.64-2.8 76.541 76.541 0 0 0-9.81-5.38c-2.4-1.09-4.84-2.09-7.27-3.09C67.7.86 66.57.48 65.46.09c-.16-.08-.34-.18-.49.06-.03.27.16.41.3.58 1.86 2.2 3.73 4.4 5.59 6.62 3.9 4.62 8.66 8.43 14.01 11.23 3.07 1.59 6.27 2.93 9.55 4.02l6.53 2.24c-.24-.01-.49-.01-.74-.05-1.23-.16-2.46-.36-3.68-.52Zm-54.88 6.17c-.14.05-.29.08-.43.1-.93.08-1.83.11-2.74.12-1.01.03-2.01-.02-3.02-.05-.22-.02-.45-.04-.67-.08-.36.03-.72.05-1.08.04-2.9-.14-5.8-.32-8.7-.45-1.32-.06-2.63-.09-3.95-.08V30c0-.02-.01-.03-.02-.05-.01-.01-.03-.02-.04-.03h-.05c-5.08.18-10.14.6-15.17 1.25 1.89-.73 3.88-1.18 5.89-1.35 1.39-.07 2.77-.23 4.18-.34 2.11-.16 4.22-.2 6.33-.11l.03.02c2.67.26 5.34.51 8.01.76 1.29.12 2.57.24 3.87.29h.15l.44.03.14.07c.2-.03.4-.05.6-.06h.05c.79.02 1.58.03 2.37.02 1.07 0 2.16-.06 3.23-.13l.57.07Zm-29.81-1.62c3.23-.66 6.53-1 9.83-1.02 1.42.02 2.84.12 4.25.3 4.26.43 8.5 1.05 12.74 1.79l1.44.25c-1.81.04-3.63.08-5.44 0-2.64-.11-5.28-.42-7.91-.66l-3.33-.29h-.15l-.99-.1h-.05c-.02 0-.03.01-.04.03-2.36-.12-4.73-.08-7.09.13-1.14.11-2.28.2-3.42.27-1.33.08-2.64.32-3.91.7-.34.1-.68.21-1.02.28 1.64-.73 3.35-1.29 5.1-1.69Zm-9.12 3.61c1.22-.31 2.46-.49 3.72-.54 1.39-.09 2.78-.18 4.18-.26.5-.03 1-.07 1.51-.07H22.32s.02.03.04.04c.02 0 .03.01.05.01 4.02.06 8.04.13 12.06.05l.73.04c-.25.05-.5.12-.76.17-2.61.32-5.23.43-7.86.6-1.89.13-3.77.34-5.66.4l-.69.02s-.04-.03-.06-.03c-2.5 0-4.99-.01-7.49-.02-2.46 0-4.92.03-7.37-.08-.98-.05-1.96-.11-2.94-.19.07-.07.22-.09.36-.12Zm-.67.39.06-.03c2.09.19 4.17.37 6.27.37h2.59c.06 0 .12.01.18.01 2.72-.02 5.44-.01 8.16-.07h.85s.03 0 .05-.02h.62c2.05-.06 4.11-.34 6.17-.44 4.76-.23 9.49-.77 14.22-1.28.68-.08 1.37-.13 2.05-.2.06-.11.12-.17.25-.12l.42-.06s-.04.08-.07.13c-.41.16-.81.34-1.21.54-1.94.42-3.83.88-5.75 1.28-.82.17-1.62.27-2.44.4-3.61.35-7.22.59-10.83.69-4.75.13-9.51 0-14.24-.39-2.32-.2-4.63-.42-6.94-.71l-.41-.11Zm1.14.55c-.16-.04-.31-.09-.47-.13 4.23.58 8.49.94 12.76 1.08 4.74.17 9.49.08 14.22-.27 1.12-.08 2.22-.19 3.34-.3.1 0 .2-.01.29-.03l.16-.02c1.4-.15 2.8-.32 4.19-.51.02 0 .05-.01.06-.03.02-.02.02-.04.02-.07 1.13-.18 2.26-.39 3.37-.63-.3.11-.6.22-.89.33a50.846 50.846 0 0 1-11.17 2.42c-1.28.12-2.55.21-3.83.32h-.03l-1.78-.01c-1.32 0-2.64-.02-3.96-.07-2.25-.06-4.45-.21-6.71-.39-3.22-.39-6.42-.95-9.58-1.69Zm32.53 1.22c-.96.3-1.94.52-2.91.79-1.75.47-3.55.73-5.35.79-3.5.15-7.01.02-10.5-.37-.17-.03-.34-.07-.51-.12.97.05 1.94.09 2.91.11 1.34.02 2.68.03 4.02 0 1.36-.02 2.72-.13 4.08-.16.02 0 .03 0 .05-.02.01-.01.02-.03.03-.05.92-.08 1.83-.22 2.76-.32 2.89-.34 5.74-.95 8.52-1.81.1-.02.2-.03.3-.03-1.13.4-2.27.81-3.39 1.18Zm3.49-1.19.49-.25.04.11-.52.14Zm4.8-2.34-.04-.08.74-.17c-.25.07-.49.15-.72.24H44Zm1.56-.61c-.94.15-1.89.26-2.84.43-1.71.29-3.44.47-5.17.53a.12.12 0 0 0-.05-.05c-.02-.01-.05-.02-.07-.01-2.74.03-5.49.09-8.23.12h-5.52c-.07-.01-.15-.02-.23-.02l-11.31-.11c-.23 0-.46 0-.68.02-2.01.12-4.01.25-6.02.39-.6.05-1.21.13-1.81.17l.95-.32c4.42-.58 8.86-.99 13.31-1.26 3.11-.05 6.22-.03 9.32.14 3.33.18 6.63.35 9.95.42 2.59.03 5.17-.14 7.73-.51.41-.06.84-.04 1.25-.06-.2.06-.4.1-.61.13h.01Zm-20.2 16.01c.27-.57.58-1.12.93-1.64.94-1.41 2-2.74 3.16-3.97.66-.67 1.4-1.25 2.19-1.76 1.12-.71 2.19-1.5 3.33-2.21.93-.57 1.91-1.05 2.86-1.56l.04.07-2.92 1.8c-1.18.74-2.3 1.59-3.32 2.54a47.845 47.845 0 0 0-5.68 6.14c-.12.16-.26.32-.4.47-.07.04-.14.07-.21.1v.02Zm-1.33 2.49c.28-.58.62-1.13.99-1.65 1.22-1.45 2.4-2.94 3.69-4.3 1.59-1.77 3.35-3.38 5.26-4.81.85-.61 1.76-1.15 2.63-1.72.99-.61 1.97-1.23 3-1.82.72-.41 1.47-.77 2.24-1.09-.22.11-.44.21-.66.33-.81.45-1.6.86-2.38 1.36-.44.29-.86.61-1.26.95-.86.68-1.69 1.33-2.52 2-.69.56-1.37 1.14-2.04 1.76-.72.66-1.44 1.35-2.11 2.06-.85.89-1.7 1.79-2.49 2.73a41.93 41.93 0 0 1-4.23 4.2s-.02-.03-.12-.04v.02Zm-.38.87c.46-.45.91-.9 1.4-1.32 1.45-1.27 2.79-2.65 4.03-4.12.75-.89 1.58-1.71 2.39-2.55.5-.52 1.04-1.02 1.56-1.54.76-.77 1.58-1.48 2.45-2.11.7-.51 1.38-1.05 2.02-1.64 1.09-.95 2.34-1.71 3.69-2.23-.23.19-.47.38-.69.58-2.9 2.52-5.83 5-8.48 7.79-.97 1.03-2.08 1.92-3.14 2.89-1.7 1.53-3.39 3.07-5.08 4.6l-.62.53c0-.18.04-.35.12-.51.08-.16.19-.3.33-.4v.02Zm6.35-3.7c.99-.7 1.92-1.48 2.8-2.31.77-.73 1.56-1.41 2.33-2.13s1.58-1.44 2.33-2.23c1.4-1.48 2.89-2.86 4.41-4.21.19-.15.38-.28.58-.41-.22.27-.45.52-.7.77-1.31 1.21-2.54 2.5-3.67 3.88-.24.3-.5.59-.78.87-1.22 1.21-2.42 2.43-3.67 3.6-.65.57-1.34 1.1-2.06 1.58-1.1.78-2.22 1.54-3.34 2.29-.6.4-1.22.78-1.86 1.13 1.16-1.01 2.36-1.97 3.62-2.86v.02Zm13.7-12c-1.68 1.67-3.04 3.6-4.5 5.44a28.396 28.396 0 0 1-7.08 6.44c-1.48.94-3.01 1.78-4.6 2.51 1.78-1.2 3.45-2.28 5.07-3.41.59-.42 1.15-.89 1.67-1.39.95-.9 1.88-1.81 2.79-2.74.63-.64 1.22-1.31 1.79-1.99.79-.95 1.64-1.85 2.54-2.7.58-.55 1.12-1.11 1.71-1.69.2-.2.42-.34.66-.55-.02.02-.03.04-.05.06v.02Zm-6.29 4.97c-.81.8-1.66 1.58-2.49 2.36-.76.7-1.54 1.37-2.26 2.09a32.2 32.2 0 0 1-3.51 2.86c-.96.73-1.91 1.5-2.87 2.24-.42.33-.86.61-1.34.85.12-.13.23-.27.36-.38 1.35-1.2 2.69-2.41 4.06-3.59 1.14-.95 2.23-1.97 3.27-3.04 1.99-2.06 4.08-4.01 6.28-5.84 1.43-1.29 2.94-2.48 4.52-3.58.44-.29.89-.59 1.32-.86.19-.1.39-.19.59-.25l-.79.72s-.03.03-.04.05c0 .02-.02.04-.02.06 0 .02 0 .04.01.06 0 .02.02.04.03.05-.58.52-1.22.96-1.83 1.44a70.3 70.3 0 0 0-5.31 4.75v.02Zm14.51-10.2c.26-.21.43-.3.64-.27l-.64.27Zm.69-.28.5-.26a.51.51 0 0 1-.22.19c-.09.04-.19.06-.29.05v.02Zm1.72-.47c.22-.19.36-.25.52-.22l-.52.22Zm7.77-1.84c-2.34.51-4.71.9-7.02 1.58h-.18a12.5 12.5 0 0 1 3.41-1.11c1.48-.25 2.96-.53 4.43-.8.17-.02.33-.02.5-.02-.38.14-.75.29-1.13.36ZM51.86 15.68c1.33.03 2.65.18 3.95.45 3.05.52 6.02 1.41 8.85 2.66 1.14.53 2.23 1.16 3.34 1.74.14.09.28.2.4.32-.7-.28-1.38-.56-2.08-.83-.79-.3-1.57-.64-2.37-.89-2.77-.88-5.52-1.82-8.35-2.45-1.3-.28-2.6-.54-3.89-.81-.17-.04-.34-.09-.5-.14.22-.02.43-.03.65-.02v-.03Zm-22.07-.61c1.92.14 3.79.6 5.7.85 1.29.2 2.59.32 3.89.37.2 0 .41 0 .61.01 3.69.35 7.41.44 11.07 1.06.27.03.54.04.81.03-.18-.08-.37-.14-.56-.19-1.84-.34-3.71-.57-5.58-.7-.98-.07-1.96-.17-2.94-.24-1.25-.1-2.51-.15-3.76-.25s-2.56-.23-3.82-.39c-.1-.02-.2-.05-.29-.09.17-.03.34-.06.51-.06 3.64.02 7.28.05 10.92.08.56.02 1.11.07 1.65.12 3.58.39 7.11 1.08 10.58 2.05.24.07.5.14.73.21 1.66.53 3.31 1.06 4.97 1.6.49.16.95.35 1.43.53-.04.08-.04.15-.05.21.19.1.41.17.62.24l3.23 1.04c.1.04.19.09.27.14-.22 0-.43-.03-.65-.07-1.86-.42-3.7-.84-5.56-1.35-2.16-.61-4.35-1.08-6.57-1.42-1.2-.18-2.39-.37-3.59-.57-1.69-.28-3.4-.42-5.11-.56-2.23-.19-4.47-.43-6.69-.67-2.16-.24-4.28-.43-6.41-.73-1.76-.25-3.51-.63-5.26-.97-.27-.08-.54-.17-.8-.29.21.04.43.03.64.05v-.03Zm12.27 4.5c1.41.06 2.83.11 4.24.17.66.03 1.32.14 1.98.12 2.29-.02 4.61.19 6.92.33.39.02.77.07 1.16.13 2.76.53 5.55.94 8.26 1.63.4.1.79.24 1.18.36l.39.07h-.4c-.23-.01-.46 0-.69-.02-3.79-.32-7.56-.63-11.34-1.02-3.77-.39-7.53-.94-11.27-1.59-.15-.04-.3-.08-.45-.14l-.51-.11.54.06Zm-.43-.4c-2.5-.43-4.97-1.04-7.38-1.8l-.28-.1c.18 0 .36.02.54.05 1.02.23 2.05.44 3.08.72 2.4.61 4.85.99 7.32 1.13 1.37.09 2.74.21 4.11.32.19.03.37.07.55.13-.21.03-.42.05-.64.05-.82-.03-1.64-.08-2.46-.12-.91-.05-1.82-.1-2.76-.18-.7-.01-1.4-.07-2.09-.16v-.03Zm6.62.02-3.97-.3c-2.06-.14-4.09-.47-6.09-.98-1.6-.4-3.21-.77-4.81-1.17-.51-.12-.99-.28-1.51-.47-.2-.09-.39-.19-.57-.31.22 0 .43.02.65.05 2.53.51 5.09.88 7.67 1.1 2.4.22 4.78.49 7.17.74.23.02.46.06.68.06 4.08.2 8.1.95 12.1 1.68 1.63.3 3.24.83 4.85 1.26.06.02.11.05.16.08-.19.01-.38.01-.57 0-2.13-.28-4.26-.57-6.39-.86-3.14-.41-6.27-.62-9.4-.86v-.03Zm-20.27-3.71c-.32-.16-.6-.36-.84-.62l.34.09c1.45.42 2.87.95 4.25 1.57.2.11.44.15.66.23-1.53-.2-3.01-.62-4.42-1.24l.02-.02Zm36.2 8.2c-7.57.63-15.2-.14-22.49-2.28-1.67-.5-3.31-1.09-4.95-1.65-.21-.09-.42-.2-.62-.33.23.05.47.09.69.15.98.3 1.96.61 2.93.92 1.79.57 3.61 1.01 5.46 1.32 1.33.23 2.65.47 3.99.66 1.34.19 2.67.34 4.02.47 1.82.17 3.64.36 5.46.45 1.82.09 3.7.07 5.55.12.23 0 .47.02.7.04-.24.04-.49.1-.74.12Zm3.59-.54c-1.31.05-2.61 0-3.91-.16-1.23-.13-2.46-.23-3.69-.31-4.44-.34-8.89-.7-13.3-1.41-1.17-.19-2.33-.49-3.49-.73-.27-.06-.53-.07-.8-.1.15.09.32.16.48.22 1.56.45 3.15.78 4.76.99.7.08 1.4.18 2.12.3 1.74.29 3.49.38 5.24.56 2.6.25 5.2.38 7.78.61.26.04.51.09.76.17-.15.02-.29.04-.44.04-2.07.02-4.13-.06-6.19-.26-.79-.08-1.59-.16-2.4-.19-2.95-.21-5.88-.58-8.78-1.12-2.44-.39-4.85-.99-7.19-1.79-1.69-.58-3.4-1.11-5.08-1.68-.28-.12-.55-.27-.81-.43h.29c-.19-.11-.39-.22-.59-.31-.75-.28-1.5-.55-2.24-.82.29.03.58.09.86.16 1.02.34 2.04.71 3.05 1.06 2.93.99 5.94 1.73 9 2.23 3.12.49 6.25.93 9.38 1.35 1.07.14 2.18.19 3.27.29 3.96.36 7.93.73 11.9 1.11.21.03.43.08.64.13-.21.04-.42.08-.63.1Zm4.36-.17c-.82-.08-1.61-.19-2.45-.3-1.43-.17-2.84-.43-4.24-.76-1.73-.4-3.48-.72-5.22-1.08-.23-.05-.44-.12-.66-.19.19 0 .38 0 .56.02 1.69.23 3.39.47 5.08.69.18.01.36.01.54 0 .2.09.41.16.62.21 1.24.22 2.47.43 3.71.62.75.08 1.48.28 2.16.61.21.11.46.2.68.28-.29.11-.53-.08-.79-.11Zm-1.93 1.7c-.88.12-1.76.23-2.65.34h-.24c.29-.08.58-.18.88-.23.58-.1 1.16-.17 1.73-.22.21-.01.42 0 .63.02-.12.03-.24.06-.36.08Zm.86-.18.66-.05c-.21.1-.45.12-.67.05Zm.77-.07c.67-.22 1.38-.28 2.08-.18l-2.08.18Zm12.15 1.36-.52.23c.05-.09.13-.16.22-.2.09-.04.19-.06.29-.05v.02Zm-15.26 9c-1.08.95-2.08 1.98-3.06 3.02-.08.06-.17.13-.24.2-1.9 1.82-3.94 3.49-6.1 5-1.39 1-2.81 1.96-4.23 2.94-.14.09-.29.14-.45.17l.2-.17c1.22-.97 2.34-2.05 3.35-3.24.45-.51.97-.97 1.46-1.45.83-.82 1.67-1.63 2.49-2.46 1.2-1.28 2.49-2.47 3.86-3.57 1.1-.83 2.2-1.63 3.3-2.46.56-.43 1.1-.9 1.66-1.33.27-.21.56-.39.87-.55 1.1-.55 2.2-1.14 3.31-1.65.77-.34 1.56-.63 2.37-.88a45.47 45.47 0 0 0-4.68 3.2h-.05c-.02 0-.04 0-.05.02-1.39 1-2.72 2.06-3.99 3.2v.02Zm14.1-8.6-2.61.95c.81-.45 1.69-.77 2.61-.95ZM52.9 46.22c.03-.06.07-.12.12-.16 1.9-2.41 3.72-4.82 5.8-7.05 1.44-1.48 2.97-2.86 4.59-4.14 1.18-.98 2.38-1.93 3.61-2.84 1.97-1.43 4.1-2.62 6.35-3.55.78-.33 1.55-.68 2.34-.99 2.32-.93 4.71-1.67 7.15-2.21.89-.19 1.79-.4 2.68-.59.1-.02.2-.02.3-.02-.84.25-1.68.51-2.52.73-2.44.64-4.84 1.36-7.2 2.23-1.61.59-3.16 1.34-4.63 2.24-.7.43-1.41.84-2.13 1.25-1.41.85-2.74 1.82-3.98 2.91-.93.78-1.79 1.63-2.68 2.46-.47.43-.91.9-1.37 1.34-.52.5-1.01 1.02-1.5 1.56a85.87 85.87 0 0 0-6.98 7.04c.04-.06.05-.12.07-.19h-.02Zm-.59 1.15c1.5-1.64 3.04-3.25 4.61-4.83v.03c.65-.44 1.26-.97 1.79-1.56.18-.18.34-.37.5-.57.21-.26.41-.5.63-.75l.2-.19s.02-.02.02-.03c0-.01 0-.02.01-.04 1.46-1.61 3.01-3.12 4.65-4.54a31.31 31.31 0 0 1 5.67-4.09c1.15-.62 2.29-1.26 3.44-1.89 1.52-.76 3.1-1.37 4.72-1.84 1.15-.38 2.31-.71 3.49-.99-.05.04-.1.08-.15.11-1.36.59-2.73 1.18-4.1 1.75-1.23.51-2.46.96-3.67 1.52-1.31.55-2.56 1.24-3.71 2.08-1.49 1.14-2.98 2.28-4.48 3.41a36.584 36.584 0 0 0-3.84 3.52c-.83.84-1.69 1.67-2.53 2.51-.75.74-1.51 1.53-2.25 2.32-.66.73-1.38 1.4-2.14 2.02-.52.41-1.03.85-1.52 1.29-.39.32-.84.58-1.31.76h-.02Zm-.63.7c.11-.11.21-.23.32-.35.14-.08.28-.14.43-.19-.08.14-.18.26-.31.35-.13.09-.27.16-.42.2h-.01Zm19.98-14.15c-2.48 2.37-5 4.7-7.61 6.93a36.613 36.613 0 0 1-4.66 3.38c-1.13.69-2.27 1.37-3.44 1.99-.9.46-1.84.86-2.79 1.21.12-.13.25-.25.38-.37.21-.15.43-.27.64-.4 2.27-1.41 4.47-2.94 6.62-4.52 1.76-1.28 3.41-2.7 4.94-4.24.09-.09.16-.2.22-.31.94-.91 1.91-1.79 2.9-2.64.51-.33.99-.71 1.43-1.13.55-.49 1.12-.96 1.7-1.42.28-.22.56-.43.83-.64.97-.74 1.97-1.43 2.98-2.11 1.46-1.01 3.06-1.81 4.75-2.38-.11.1-.22.19-.35.26-3.13 1.73-6 3.89-8.53 6.41h-.02Zm12.45-8.22c.2-.09.38-.23.62-.18l-.62.18Zm4.24-1.08c-.8.22-1.63.32-2.45.32.46-.28.98-.44 1.52-.46.23-.02.45-.07.68-.09.25-.03.51 0 .74.1-.15.07-.3.12-.46.15h-.02Zm2.84.11c-.75.06-1.5.11-2.26.15-.15 0-.3-.01-.46-.02a2.62 2.62 0 0 1 1.85-.37l1.22.18c-.12.04-.23.06-.35.09v-.03Zm57.49 12.63c-.16.04-.33.04-.49.01-.16-.03-.31-.1-.45-.19.33-.05.67.01.96.19h-.02Zm.09-.45c-.13.06-.28.08-.43.07-.15 0-.29-.05-.42-.12a.95.95 0 0 1 .44-.07c.15.01.3.05.43.13h-.02Zm-1.58.21-.6-.11c.11-.03.22-.04.33-.01.11.02.21.07.3.14h-.02Zm-20.5-5.28c.88.25 1.73.61 2.6.92-.16 0-.33-.01-.49-.05-1.47-.41-2.94-.84-4.41-1.29-.1-.04-.19-.09-.27-.15.87.21 1.74.35 2.58.59v-.03Zm-2.61-.57c-.41 0-.8-.1-1.17-.28.41 0 .82.11 1.18.31v-.03Zm-30.04 4.47c1.96-.94 3.91-1.9 5.89-2.78 1.85-.8 3.77-1.4 5.75-1.79.54-.12 1.08-.21 1.62-.31-.15.07-.31.13-.46.17-2.52.65-4.99 1.5-7.38 2.54-2.01.86-4.04 1.71-6.07 2.53.24-.11.44-.23.67-.35l-.02-.02Zm12.73-.09c-.51.38-.99.78-1.52 1.14-2.51 1.79-5.02 3.59-7.57 5.34-1.19.81-2.44 1.55-3.7 2.24s-2.52 1.3-3.79 1.96a51.688 51.688 0 0 1-6.87 2.78c-1.45.5-2.9.98-4.37 1.42.31-.16.62-.34.95-.48 1.22-.49 2.45-.97 3.68-1.45.57-.23 1.15-.46 1.72-.69 2.78-1.18 5.5-2.5 8.14-3.97.4-.22.77-.5 1.16-.72 1.3-.76 2.63-1.49 3.92-2.27.76-.46 1.48-.99 2.2-1.51 1.85-1.35 3.76-2.6 5.75-3.74l.21-.11.08.06Zm11.2-5.74c-.38.12-.77.25-1.16.35-1.95.54-3.81 1.33-5.55 2.36-1.77 1.04-3.51 2.15-5.36 3.08-1.77.96-3.47 2.05-5.07 3.27a34.647 34.647 0 0 1-4.34 2.77c-1.14.59-2.19 1.33-3.29 1.99-.39.24-.79.48-1.19.69-2.08 1.1-4.2 2.14-6.38 3.07-1.28.55-2.59 1.03-3.88 1.57-1.05.45-2.09.93-3.13 1.4-.44.2-.86.43-1.42.72.11-.37.34-.69.65-.91.14-.08.28-.15.43-.23 1.76-.89 3.52-1.76 5.26-2.68 1.13-.6 2.23-1.27 3.31-1.92.77-.45 1.53-.92 2.3-1.36 1.66-.96 3.35-1.89 5.01-2.85.82-.47 1.61-.97 2.42-1.45.43-.26.85-.53 1.3-.77 2.27-1.29 4.54-2.57 6.81-3.87.18-.1.36-.19.54-.28 1.31-.67 2.62-1.32 3.93-2 1.38-.72 2.82-1.33 4.29-1.84 1.12-.4 2.25-.76 3.37-1.16a1.262 1.262 0 0 1 1.15.06l-.02-.02Zm-1.25-.29c-.48.17-.96.36-1.42.53-2.5.76-4.91 1.78-7.2 3.04-.64.36-1.3.67-1.95 1.01-1.81.93-3.59 1.92-5.32 2.99-.35.22-.72.41-1.08.6-1.8.94-3.56 1.97-5.28 3.08-.38.25-.81.45-1.2.66-1.93.97-3.74 2.12-5.58 3.24-.64.39-1.3.77-1.95 1.15-2.31 1.41-4.7 2.62-7.14 3.83-.09.04-.19.06-.29.09.37-.28.63-.46.88-.67.66-.49 1.3-1.01 1.91-1.57 1.13-1.11 2.33-2.13 3.61-3.06.7-.51 1.38-1.06 2.05-1.61.75-.6 1.54-1.12 2.38-1.58 1.15-.62 2.27-1.29 3.44-1.88 1.9-.95 3.84-1.84 5.75-2.77 1.2-.57 2.39-1.15 3.6-1.7.96-.43 1.94-.81 2.9-1.22.82-.35 1.65-.68 2.45-1.07 1.59-.76 3.23-1.41 4.91-1.94.96-.3 1.91-.64 2.88-.9.54-.12 1.09-.21 1.65-.26l-.02-.02Zm-1.28-.11c-.28.07-.56.15-.84.21-.14.03-.29.04-.44.02a1.719 1.719 0 0 1 1.3-.22l-.02-.02Zm-4.51 1.52c-1.31.44-2.59 1.03-3.87 1.61-1.37.62-2.78 1.16-4.19 1.75-.15.06-.3.12-.44.19-2.3 1.09-4.6 2.19-6.89 3.28-.83.4-1.68.72-2.49 1.15-1.73.9-3.44 1.81-5.13 2.78-.59.39-1.16.81-1.71 1.27-.97.75-1.99 1.47-2.96 2.23-.64.51-1.26 1.04-1.86 1.62-.8.78-1.66 1.51-2.55 2.19-.12.08-.25.14-.39.2.35-.52.64-.91.89-1.31.35-.59.82-1.11 1.38-1.51.28-.2.54-.42.78-.66 1.95-1.77 4.04-3.38 6.26-4.8.39-.24.79-.46 1.2-.66 2-1.01 4-2.04 6.02-3.02 1.11-.55 2.25-1.01 3.39-1.49 1.39-.59 2.79-1.16 4.18-1.76 2.12-.91 4.23-1.85 6.41-2.62.92-.33 1.88-.57 2.83-.84.1-.02.2-.03.3-.03-.34.17-.74.31-1.14.45l-.02-.02Zm.27-.49c-1.24.33-2.45.75-3.63 1.25l-4.55 1.9c-1.35.57-2.69 1.15-4.05 1.69-3.62 1.44-7.05 3.28-10.53 5.02-1.26.69-2.47 1.49-3.6 2.38-1.35.93-2.62 1.97-3.81 3.1l-.13-.1c.33-.39.65-.79.99-1.18 1.67-1.85 3.55-3.52 5.58-4.96.45-.33.9-.62 1.38-.89.84-.5 1.68-1.01 2.57-1.44 1-.5 2.04-.93 3.07-1.38.31-.14.63-.23.95-.41 1.37-.69 2.81-1.21 4.24-1.77.62-.24 1.23-.48 1.85-.72 2.05-.79 4.14-1.45 6.28-1.97.91-.22 1.81-.5 2.73-.7.83-.18 1.67-.28 2.52-.29l-1.85.47Zm3.12-2.02c-.14.03-.28.03-.42 0-.14-.03-.27-.09-.39-.17l.81.17Zm-.83-.18c-.29.04-.58-.02-.83-.17.15-.03.3-.03.45 0 .15.03.29.09.41.18l-.02-.02Zm-13.46-4.61c-.31-.09-.61-.21-.9-.35-1.08-.58-2.13-1.2-3.19-1.8l-.03-.02-1.79-1.07-.04-.02-.59-.35c-.05-.03-.11-.06-.17-.09-3.53-2.11-7.02-4.28-10.49-6.47-.72-.47-1.44-.93-2.18-1.38l-.76-.48c-1.07-.68-2.12-1.37-3.19-2.06a54.62 54.62 0 0 1-5.36-4.25c-1-.91-2.03-1.77-3.05-2.66 2.13 1.5 4.31 2.92 6.49 4.34l2.58 1.81c1.4.98 2.82 1.94 4.24 2.91.9.63 1.79 1.26 2.7 1.88.99.67 1.97 1.32 2.94 1.97.98.64 1.95 1.27 2.95 1.89 1.52.94 3.03 1.88 4.58 2.77 1.45.79 2.84 1.67 4.16 2.65l1.1.79Zm-3.95-1.7c-.19-.1-.39-.16-.58-.25a75.421 75.421 0 0 1-7.69-4.21c-2.34-1.47-4.71-2.92-7.01-4.43-1.11-.72-2.13-1.58-3.19-2.37-.1-.08-.19-.17-.28-.26.08.01.16.04.23.07l.56.34c4.26 2.85 8.66 5.52 13.09 8.1l2.69 1.55c.09.08.19.14.31.17l.29.15c.26.22.54.41.83.57l.74.57ZM84.1 9.54c1.67.93 3.24 2.02 4.69 3.26.14.13.26.27.39.41-.16-.09-.32-.2-.48-.31l-4.61-3.19c-.13-.07-.22-.19-.34-.28.12.03.24.07.35.12ZM79.84 7.2c.17.06.33.12.49.2.86.46 1.7.95 2.54 1.43.13.09.26.19.38.3-.19-.1-.38-.17-.57-.27-.73-.39-1.45-.78-2.18-1.17-.24-.13-.46-.3-.68-.45l-.3-.16.33.11Zm-4.8-2.13c1.03.51 2.05 1.03 3.05 1.57 1.33.71 2.64 1.47 3.96 2.2a62.83 62.83 0 0 1 7.86 5.39c2.29 1.82 4.46 3.8 6.49 5.91.51.52 1.08.98 1.63 1.47.13.12.26.25.37.37-.55-.22-1.06-.52-1.5-.91-1.69-1.29-3.37-2.59-5.06-3.89-1.21-.93-2.42-1.87-3.64-2.78-1.02-.78-2.02-1.56-3.03-2.36-2.09-1.6-4.27-3.08-6.54-4.41-1.23-.76-2.44-1.54-3.65-2.32a4.81 4.81 0 0 1-.48-.42c.19.06.37.13.54.22Zm-7.81-3.72.09.05c.22.06.43.13.64.22 2.26 1.05 4.43 2.29 6.49 3.69 1.17.83 2.4 1.59 3.64 2.32a57.6 57.6 0 0 1 7.75 5.29c.69.57 1.42 1.08 2.12 1.63l6.63 5.1c.1.08.19.17.28.26-.19-.06-.37-.13-.54-.22-1.61-.99-3.22-2.01-4.83-3.01-.12-.06-.22-.16-.34-.23-2.63-1.48-5.03-3.33-7.56-4.98-2.01-1.31-3.96-2.72-5.92-4.11-.78-.56-1.59-1.08-2.4-1.6-.09-.06-.19-.12-.3-.16-1.93-1.38-3.85-2.79-5.75-4.18v-.07Zm24.39 19.91a46.003 46.003 0 0 1-12.45-6.67 43.13 43.13 0 0 1-5.62-5.1c-.12-.12-.22-.27-.32-.4.15.08.3.16.42.28 2.13 1.62 4.19 3.34 6.39 4.86 3.53 2.51 7.26 4.72 11.15 6.63.29.15.58.31.87.5-.15-.02-.3-.06-.44-.11Zm1.87.44c-.58-.31-1.19-.59-1.79-.87a82.97 82.97 0 0 1-7.38-4.1c-3.3-2.05-6.49-4.3-9.53-6.72a31.286 31.286 0 0 1-5.08-4.88c-.79-.95-1.63-1.86-2.44-2.79-.11-.13-.21-.28-.31-.42.57.36 1.07.82 1.47 1.36.12.23.32.41.57.49.13.18.28.35.44.52 3.44 3.16 7.08 6.09 10.88 8.8 1.34.99 2.78 1.85 4.2 2.74 1.96 1.22 3.94 2.42 5.94 3.58 2.78 1.59 5.66 3.01 8.61 4.26.23.1.45.22.66.35-2.14-.61-4.23-1.38-6.25-2.32Z"/></svg>